<svg version="1.1" id="Layer_1" xmlns="http://www.w3.org/2000/svg" xmlns:xlink="http://www.w3.org/1999/xlink" x="0px" y="0px"
             viewBox="0 0 100 100" style="enable-background:new 0 0 100 100;" xml:space="preserve">
        <style type="text/css">
            .st0{display:none}
            .st1{fill:#000;}
            .st2{fill:#FFFFFF;}
        </style>
        <g id="XMLID_1_">
            <ellipse id="XMLID_15_" class="st0" cx="50.3" cy="50" rx="47.3" ry="45.5"/>
        </g>
        <ellipse id="XMLID_2_" class="st1" cx="50.3" cy="50" rx="28.6" ry="27.5"/>
        <path id="XMLID_3_" class="st2" d="M39,59.5L39,59.5c-1.1,0-2-0.9-2-2v-15c0-1.1,0.9-2,2-2h0c1.1,0,2,0.9,2,2v15
            C41,58.6,40.1,59.5,39,59.5z">
            <animateTransform id="anda"
                attributeName="transform"
                attributeType="XML"
                type="translate"
                dur="1s"
                values="0,6;0,-6;0,6"
                repeatCount="indefinite"/>
        </path>
        <path id="XMLID_4_" class="st2" d="M44.5,59.5L44.5,59.5c-1.1,0-2-0.9-2-2v-15c0-1.1,0.9-2,2-2h0c1.1,0,2,0.9,2,2v15
            C46.5,58.6,45.6,59.5,44.5,59.5z">
                <animateTransform id="anda"
                attributeName="transform"
                attributeType="XML"
                type="translate"
                begin="0.1"
                dur="1s"
                values="0,6;0,-6;0,6"
                repeatCount="indefinite"/>
        </path>

        <path id="XMLID_5_" class="st2" d="M50.3,59.5L50.3,59.5c-1.1,0-2-0.9-2-2v-15c0-1.1,0.9-2,2-2h0c1.1,0,2,0.9,2,2v15
            C52.3,58.6,51.4,59.5,50.3,59.5z">
                <animateTransform id="anda"
                attributeName="transform"
                attributeType="XML"
                type="translate"
                begin="0.2"
                dur="1s"
                values="0,6;0,-6;0,6"
                repeatCount="indefinite"/>
        </path>

        <path id="XMLID_6_" class="st2" d="M55.8,59.5L55.8,59.5c-1.1,0-2-0.9-2-2v-15c0-1.1,0.9-2,2-2h0c1.1,0,2,0.9,2,2v15
            C57.8,58.6,56.9,59.5,55.8,59.5z">
                <animateTransform id="anda"
                attributeName="transform"
                attributeType="XML"
                type="translate"
                begin="0.3"
                dur="1s"
                values="0,6;0,-6;0,6"
                repeatCount="indefinite"/>
        </path>
        <path id="XMLID_7_" class="st2" d="M61.5,59.5L61.5,59.5c-1.1,0-2-0.9-2-2v-15c0-1.1,0.9-2,2-2h0c1.1,0,2,0.9,2,2v15
            C63.5,58.6,62.6,59.5,61.5,59.5z">
                <animateTransform id="anda"
                attributeName="transform"
                attributeType="XML"
                type="translate"
                begin="0.4"
                dur="1s"
                values="0,6;0,-6;0,6"
                repeatCount="indefinite"/>
        </path>
        </svg>